<?xml version="1.0" standalone="no"?>
<!DOCTYPE svg PUBLIC "-//W3C//DTD SVG 20010904//EN"
 "http://www.w3.org/TR/2001/REC-SVG-20010904/DTD/svg10.dtd">
<svg version="1.0" xmlns="http://www.w3.org/2000/svg"
 width="700.000000pt" height="700.000000pt" viewBox="0 0 700.000000 700.000000"
 preserveAspectRatio="xMidYMid meet">
<metadata>
Created by potrace 1.11, written by Peter Selinger 2001-2013
</metadata>
<g transform="translate(0.000000,700.000000) scale(0.100000,-0.100000)"
fill="#000000" stroke="none">
<path d="M3277 6994 c-1 -1 -38 -5 -82 -8 -167 -14 -354 -46 -538 -92 -163
-41 -428 -130 -489 -164 -10 -6 -22 -10 -28 -10 -16 0 -257 -117 -355 -173
-132 -74 -274 -168 -405 -265 -63 -47 -117 -89 -120 -92 -3 -4 -41 -38 -85
-77 -334 -293 -619 -671 -815 -1078 -74 -155 -94 -201 -110 -250 -7 -22 -16
-44 -20 -50 -14 -18 -117 -347 -134 -430 -20 -92 -35 -167 -40 -200 -2 -11 -6
-33 -9 -50 -7 -36 -14 -80 -22 -160 -4 -33 -9 -73 -12 -90 -9 -55 -10 -479 -2
-570 12 -129 18 -177 34 -277 95 -579 324 -1115 674 -1578 420 -558 1018 -981
1701 -1204 198 -64 451 -124 605 -141 28 -4 57 -8 65 -10 90 -25 678 -25 809
0 9 1 39 6 66 9 311 41 611 125 905 253 69 30 133 57 143 60 9 3 17 10 17 16
0 10 -71 148 -265 512 -23 44 -66 125 -95 180 -84 161 -160 305 -195 370 -18
33 -63 119 -100 190 -37 72 -71 134 -75 138 -4 4 -33 -3 -64 -17 -97 -43 -290
-101 -371 -112 -16 -2 -37 -6 -45 -9 -8 -2 -37 -7 -65 -11 -27 -3 -63 -8 -80
-10 -35 -4 -296 -5 -340 0 -37 3 -133 17 -160 22 -11 2 -33 7 -50 9 -182 32
-439 134 -630 250 -285 173 -564 476 -699 760 -82 172 -127 295 -157 430 -27
118 -26 111 -34 180 -3 32 -9 63 -11 67 -5 8 -6 308 0 358 60 567 400 1107
906 1440 178 117 426 223 625 266 82 18 94 20 200 29 44 4 83 10 88 14 7 7 10
166 22 1117 l6 462 -81 -2 c-45 0 -82 -2 -83 -2z"/>
<path d="M3649 6848 c-1 -166 -4 -409 -13 -1035 l-6 -403 32 -1 c18 0 42 -2
53 -4 61 -11 84 -15 120 -21 43 -6 192 -44 265 -67 187 -61 424 -190 595 -325
82 -64 269 -252 305 -305 14 -21 31 -36 38 -35 17 4 1311 861 1312 869 0 10
-137 187 -205 265 -70 80 -248 259 -322 324 -348 307 -787 561 -1208 700 -71
24 -139 46 -150 51 -102 39 -482 112 -650 124 -33 3 -84 7 -112 10 l-53 6 -1
-153z"/>
<path d="M6099 5098 c-200 -132 -495 -328 -655 -434 l-292 -193 54 -108 c112
-226 179 -458 200 -697 11 -123 6 -334 -10 -421 -2 -11 -7 -40 -11 -65 -3 -25
-18 -90 -32 -145 -114 -444 -403 -860 -770 -1108 -51 -34 -92 -66 -93 -71 0
-8 136 -270 265 -511 18 -33 63 -118 100 -190 37 -71 80 -152 95 -180 15 -27
58 -108 95 -180 37 -71 84 -161 105 -200 21 -38 45 -85 54 -103 l17 -33 47 27
c115 66 395 261 427 298 6 6 33 29 60 51 49 38 335 321 365 361 8 10 44 55 81
99 165 202 345 486 443 701 20 43 41 87 46 96 20 36 109 267 144 373 44 138
60 199 101 405 33 167 40 218 54 390 8 95 6 446 -3 530 -2 25 -7 77 -11 115
-3 39 -8 78 -11 87 -6 21 -12 53 -20 103 -49 331 -226 828 -399 1120 -20 33
-43 75 -52 93 -9 17 -20 32 -24 32 -4 0 -171 -109 -370 -242z"/>
</g>
</svg>
